<svg xmlns="http://www.w3.org/2000/svg" viewBox="0 0 80 72"><path fill="#E5E5E5" d="M16 0 0 8v32l64 32 16-8V32z"/><path fill="#2D3134" d="M77 36.5v29L66 71V42z"/><path fill="#262626" d="M76 65V36.9l1-.4v29L66 71v-.9z" opacity=".45"/><path fill="#E5E5E5" d="M78 44v1l-12 6v-1zM78 53v1l-12 6v-1z" opacity=".5"/><path fill="#E5E5E5" d="m72 68-1 .5V39.2l1-.5z"/><path fill="#262626" d="M56 67 4 41V14.5L3 14v27.5L56 68z" opacity=".45"/><path fill="#2D3134" d="M56 39.5 3 14v27.5L56 68z"/><g fill="#E5E5E5"><path d="M3 20v1l59 30v-1zM3 29v1l59 30v-1z" opacity=".5"/><path d="m26 53 1 .5v-28l-1-.5zM20 50l1 .5V22.9l-1-.5zM14 47l1 .5V19.9l-1-.5zM8 44l1 .5V16.9l-1-.5zM38 59l1 .5V31.6l-1-.5zM32 56l1 .5V28.6l-1-.5zM44 62l1 .5V34.4l-1-.5zM50 65l1 .5V37.2l-1-.5z"/></g><path fill="#FFF" d="M56 40 36 55l20-9z" opacity=".2"/><path fill="#FFF" d="m21 50.5.4.2L45 41l-32 5.5z" opacity=".1"/><path fill="#FFF" d="m24.1 24.5-12.7 9.1 17.2-7z" opacity=".15"/><path fill="#CC291F" d="m62 71-4-2V37l4 2z"/><path d="m80 64-16 8V40l16-8z" opacity=".39"/><path d="m0 40 64 32V40L0 8z" opacity=".06"/></svg>